<?xml version="1.0" encoding="UTF-8" standalone="no"?>
<!-- Created with Inkscape (http://www.inkscape.org/) -->

<svg
   width="1280"
   height="720"
   viewBox="0 0 338.66667 190.5"
   version="1.1"
   id="svg1"
   inkscape:version="1.4 (e7c3feb, 2024-10-09)"
   sodipodi:docname="set-a-b.svg"
   xmlns:inkscape="http://www.inkscape.org/namespaces/inkscape"
   xmlns:sodipodi="http://sodipodi.sourceforge.net/DTD/sodipodi-0.dtd"
   xmlns="http://www.w3.org/2000/svg"
   xmlns:svg="http://www.w3.org/2000/svg">
  <sodipodi:namedview
     id="namedview1"
     pagecolor="#505050"
     bordercolor="#eeeeee"
     borderopacity="1"
     inkscape:showpageshadow="0"
     inkscape:pageopacity="0"
     inkscape:pagecheckerboard="0"
     inkscape:deskcolor="#505050"
     inkscape:document-units="mm"
     inkscape:zoom="1.5193868"
     inkscape:cx="539.36234"
     inkscape:cy="343.23058"
     inkscape:window-width="2560"
     inkscape:window-height="1440"
     inkscape:window-x="0"
     inkscape:window-y="0"
     inkscape:window-maximized="0"
     inkscape:current-layer="layer1" />
  <defs
     id="defs1" />
  <g
     inkscape:label="Layer 1"
     inkscape:groupmode="layer"
     id="layer1">
    <circle
       style="fill:#006eff;fill-opacity:1;fill-rule:evenodd;stroke-width:1;stroke-linecap:round;stroke-linejoin:round"
       id="path1"
       cx="60.089554"
       cy="93.828354"
       r="33" />
    <path
       id="path1-5"
       style="fill:#006eff;fill-opacity:1;fill-rule:evenodd;stroke-width:1;stroke-linecap:round;stroke-linejoin:round"
       d="M 267.39195 62.491793 A 33 33 0 0 0 234.39189 95.491846 A 33 33 0 0 0 267.39195 128.4919 A 33 33 0 0 0 300.39148 95.491846 A 33 33 0 0 0 267.39195 62.491793 z M 267.47153 75.589185 A 19.947762 19.947762 0 0 1 287.41915 95.537321 A 19.947762 19.947762 0 0 1 267.47153 115.48494 A 19.947762 19.947762 0 0 1 247.52391 95.537321 A 19.947762 19.947762 0 0 1 267.47153 75.589185 z " />
    <circle
       style="fill:#ffd248;fill-rule:evenodd;stroke-width:1;stroke-linecap:round;stroke-linejoin:round;fill-opacity:1"
       id="path2"
       cx="149.38557"
       cy="95.25"
       r="19.947762" />
    <rect
       style="fill:#000000;fill-opacity:1;fill-rule:evenodd;stroke-width:1;stroke-linecap:round;stroke-linejoin:round"
       id="rect2"
       width="18.458654"
       height="2.3508661"
       x="101.7838"
       y="92.989815"
       ry="1.175433" />
    <rect
       style="fill:#000000;fill-opacity:1;fill-rule:evenodd;stroke-width:1;stroke-linecap:round;stroke-linejoin:round"
       id="rect3"
       width="18.458654"
       height="2.3508661"
       x="190.96547"
       y="89.719597"
       ry="1.175433" />
    <rect
       style="fill:#000000;fill-opacity:1;fill-rule:evenodd;stroke-width:1;stroke-linecap:round;stroke-linejoin:round"
       id="rect4"
       width="18.458654"
       height="2.3508661"
       x="191.10356"
       y="98.93676"
       ry="1.175433" />
  </g>
</svg>
